<svg id="Layer_1" data-name="Layer 1" xmlns="http://www.w3.org/2000/svg" viewBox="0 0 720 405"><defs><style>.cls-1{fill:#fd0707;}.cls-2{fill:#fefefe;}</style></defs><path d="M399.42,601.88Q222,601.88,44.6,602c-3.74,0-4.6-.83-4.6-4.59q.16-197.83,0-395.68c0-3.57.53-4.7,4.49-4.7q355.58.18,711.15,0c3.59,0,4.35.72,4.35,4.34q-.18,197.84,0,395.69c0,3.85-.5,5-4.75,5Q577.34,601.78,399.42,601.88Zm1-153.89c-2.18-2.63-3.85-4.91-5.78-6.95-10.22-10.79-24.57-14-37.92-8.65-12.48,5-19.66,16.94-19.79,31.81-.14,17.19,7,30.85,19.48,42.08s24.88,22.1,37.3,33.18c6.7,6,6.71,6,13.21-.05,13.25-12.4,27.58-23.58,40.51-36.33,11.33-11.16,16.53-24.69,16.3-40.44-.35-24.42-24.52-39.82-46.61-29.73C410.09,436.12,404.9,441.41,400.43,448ZM439,365.88c0,3.66.2,7.34-.07,11-.21,2.84,1,3.17,3.42,3.23,2.63.05,3.9-.36,3.72-3.44a124.56,124.56,0,0,1,0-14.46,6.1,6.1,0,0,1,5.49-5.95c3.33-.15,3.52,3.07,3.46,5.88-.1,5,.21,10-.11,15-.21,3.29,1.64,2.85,3.67,3,2.32.11,3.67-.17,3.49-3.12-.29-4.64-.12-9.32-.06-14,0-2.94,3.67-7.36,5.76-6.87,3.35.79,3.29,3.54,3.24,6.28-.08,5,.15,10-.08,15-.14,2.89,1.45,2.86,3.38,2.66,1.58-.16,3.81,1,3.72-2.31-.16-6.32.22-12.66-.13-19-.3-5.36-3.25-7.5-8.67-7.76-3.21-.15-5.52,2.3-8,2.63s-5-2.7-8.4-2.74c-3.06,0-5.46,2.35-8.77,1.28-3.81-1.23-5.72.41-5.12,4.78C439.32,359.85,439,362.89,439,365.88ZM400,380c8.44,2.58,13.91.58,17.16-5.51,2.4-4.47,2.39-9.24,1.56-13.81-1.34-7.44-7-11.21-14.25-9.45a25,25,0,0,1-8.25.77c-2.64-.23-3.32.69-3.28,3.28q.22,15.42,0,30.86c0,2.79.29,4,3.64,4.05,3.64,0,3.57-1.73,3.44-4.22C399.92,384.14,400,382.32,400,380ZM268,368.42c0-2,0-4,0-6,.11-4.35-.1-8.9-5.07-10.3-6.09-1.73-12.51-2.92-17.79,2.32-1.33,1.33-3.12,3.35-1.76,5,.76.95,3.42.35,5.22.5,1.44.12,1.19-1.32,1.83-1.9a7.19,7.19,0,0,1,9-1c1.55.84,1.84,2.24,1.58,3.82-.31,1.84-1.83,1.13-2.77,1.07a28.45,28.45,0,0,0-8.67,1.06A9.85,9.85,0,0,0,242,374c.4,3.89,4.19,6.81,9,7a31.58,31.58,0,0,0,9.09-1.31c2.42-.59,6.17,1.74,7.48-.52s.38-5.79.43-8.77C268,369.75,268,369.09,268,368.42Zm58-15.27a70.7,70.7,0,0,1,.06-8.2c.4-3.24-1.56-2.89-3.62-3-2.26-.08-3.58.08-3.52,3.08q.31,15.94,0,31.89c-.06,3,1.28,3.15,3.53,3.08,2.07-.07,3.84.26,3.63-3a120.12,120.12,0,0,1,0-14.94c.24-3.83,3.4-5.79,6.63-5.92s4.37,2.65,4.32,5.79c-.08,5,.18,10-.1,14.94-.17,3,1.22,3.19,3.5,3.1,2.05-.08,3.85.31,3.66-3-.32-5.47-.05-11-.1-16.45-.05-6-3.56-9.48-9.5-9.63C331.68,350.93,328.92,351,326,353.15ZM355.14,368c5.71,0,11.32,0,16.92,0,1.12,0,2.73.78,3-1.49.54-5.16-2.25-12.59-7.64-14.48-7.72-2.72-14.55-.56-17.55,5.71a18.44,18.44,0,0,0,0,16.76c2.45,5.09,6.66,6.63,12,6.58,4.63,0,8.79-.79,10.86-5.51.57-1.28,2.63-3.23.65-4.15-1.74-.8-4.4-1.4-6.33.55C360.8,378.22,357.68,377.29,355.14,368Zm133.92,0c5.72,0,11.31,0,16.91,0,1.34,0,2.85.58,3.08-1.94.43-4.74-2.69-12.2-6.68-13.84-5.4-2.22-13.22-1.62-16.78,2.54-5.54,6.48-4.84,19.06,1.89,24.2,4.17,3.18,16.72,3.65,19.21-3.34.49-1.37,2.57-3.26.7-4.19s-4.43-1.4-6.35.47C494.68,378.09,491.73,377.26,489.06,368Zm161,0c5.75,0,11.37,0,17,0,1.12,0,2.71.76,2.94-1.54.51-5.15-2.31-12.59-7.69-14.45-7.73-2.66-14.57-.51-17.54,5.74a18.53,18.53,0,0,0,.08,16.77c2.57,5.32,7.05,6.67,12.51,6.55,4.49-.1,8.42-1,10.35-5.54.55-1.28,2.67-3.22.6-4.13-1.74-.77-4.61-1.59-6.26.63s-3.61,4.44-6.71,3.67C651.69,374.79,650.55,371.75,650,368Zm30,0c5.8,0,11.43,0,17.06,0,1.15,0,2.68.68,2.89-1.59.47-5.08-2.34-12.58-7.75-14.41-7.76-2.62-14.55-.46-17.53,5.79a18.64,18.64,0,0,0-.08,16.37c2.15,4.8,6,6.88,11.27,6.9,4.92,0,9.56-.36,11.81-5.58.54-1.25,2.72-3.2.53-4.1-1.73-.72-4.57-1.6-6.24.69s-3.61,4.42-6.73,3.61C681.62,374.73,680.55,371.68,680,368Zm-513.95-1.16c.19-6.79-1.47-12.3-7.46-14.71-7.16-2.88-13.38-1.14-17.12,4s-3,15.92.78,20.66c3.17,4,9.59,5.5,16.07,3.23C163.17,378.3,166.05,373.12,166.06,366.85ZM571,366c0-6.94-2.88-12.3-7.54-14-6.63-2.45-13.83-.7-17.14,4.18-3.55,5.24-2.85,15.91,1,20.67,3.22,4,9.88,5.35,16.12,3.13C568.11,378.3,571,373,571,366ZM99.64,342.53c1.62,2.22,3,4,4.24,5.83,5.41,8.42,13.76,15.63,11.24,27.36-.57,2.66-.2,4.49,3.65,4.46s3.49-2.07,3.28-4.36c-.67-7.43.43-14.07,5.9-19.89,3.66-3.89,6.23-8.8,9.66-13.81-4.21.17-8-1.45-10.5,2.51-2.81,4.4-5.65,8.77-8.54,13.25-2.29-3.59-4.69-6.84-6.54-10.37C109.42,342.53,105.62,340.92,99.64,342.53ZM273,365.83c0,3.83.2,7.67-.06,11.48-.23,3.45,2,2.55,3.87,2.71,2.13.19,3.4-.09,3.26-2.83-.25-4.82-.13-9.66-.05-14.49.06-3.1,3.84-7,6.61-6.61,3.52.51,4.47,3.09,4.39,6.37-.1,4.82.19,9.67-.1,14.48-.18,3,1.24,3.18,3.52,3.1,2.07-.07,3.82.26,3.64-3-.31-5.64,0-11.32-.11-17-.09-5.37-3.7-8.84-9.09-9.08-3-.13-5.74.92-8.57,1.46-2,.37-5.69-1.34-6.7.15-1.27,1.85-.53,5.09-.6,7.72C273,362.16,273,364,273,365.83Zm-78,.21c0-3.66-.23-7.35.08-11,.26-3.06-1.31-3.12-3.54-3.08s-3.83-.18-3.62,3c.32,4.64.13,9.32.07,14,0,3.44-3.82,7.47-6.76,7-3.54-.6-4.34-3.25-4.26-6.52.13-4.82-.2-9.67.12-14.48.22-3.29-1.63-2.85-3.67-2.95-2.33-.12-3.63.18-3.49,3.13.27,5.65,0,11.32.11,17,.11,5.44,3.8,8.43,9.22,9.06,4,.46,7.25-2.46,11.27-1.23,3.6,1.11,5-.62,4.55-4.39A83.39,83.39,0,0,1,195.05,366Zm20,.27c-.38,5.57,1.63,10.65,6.41,13.29s10.41,2.27,15.3-.94c2.37-1.55,3.65-4.31,3-6.7-.55-2-3.43-.67-5.26-.91s-1.63,1.73-2.37,2.64c-1.59,1.95-2.95,3-5.59,1.48-3.64-2.06-5.67-7.64-4.29-12.82.8-3,2.34-5.47,5.46-6.18,2.87-.66,4.12,1.52,5.39,3.74,1.35,2.38,3.84.75,5.79,1,1.12.16,1.4-1,1.08-1.7-1-2.27-1.18-4.82-3.94-6.34-4.88-2.7-10-2.92-14.46-.52C216.57,355.11,214.65,360.37,215.06,366.31ZM530,368.26c0,2.83.17,5.67-.05,8.48-.19,2.59.62,3.46,3.28,3.34,2.39-.1,4,0,3.85-3.29-.3-5.64-.07-11.3-.08-17,0-1.52-.27-3.16,2.15-2.83,2,.29,2.92-.25,2.94-2.61,0-2.67-1.47-2.52-3.17-2.37-2.1.19-2.16-1.18-1.87-2.53.41-1.89.84-3.95,3.62-3.48,2.17.37,2.3-.9,2.39-2.62.1-2.13-.9-2.29-2.65-2.43-7-.57-9.55,1.44-10.34,8.47-.2,1.77-.34,2.86-2.44,2.6-1.87-.23-1.68,1.19-1.6,2.32s-.61,2.75,1.29,2.58c3.41-.31,2.65,2,2.68,3.84C530,363.28,530,365.77,530,368.26Zm80,.08c0,3,.2,6-.05,9-.29,3.44,2,2.56,3.85,2.71,2.1.17,3.38,0,3.27-2.81-.23-5.81,0-11.63-.08-17.45,0-1.6-.07-3.1,2.23-2.74,2.12.33,2.88-.45,2.86-2.7s-1-2.54-2.74-2.29c-2.73.38-2.67-1.5-2.25-3.1.52-1.94,1.62-3.48,4.16-2.94,1.72.36,1.88-.93,1.73-2.17-.13-1,.58-2.21-1.15-2.81A8.73,8.73,0,0,0,610,348.52c-.14,1.68.68,3.88-2.46,3.53-1.88-.21-1.56,1.3-1.52,2.39s-.51,2.7,1.36,2.51c3-.3,2.65,1.55,2.62,3.41C609.91,363,609.94,365.68,609.94,368.34ZM387,361.27c0-5.5-.16-11,.07-16.49.11-2.78-1.25-2.9-3.31-2.78-1.91.12-3.89-.61-3.83,2.77.2,10.82.17,21.65,0,32.48-.05,2.78,1.25,2.9,3.31,2.77s4,.63,3.82-2.76C386.81,371.94,387,366.6,387,361.27ZM575,366c0,3.65.23,7.32-.07,10.95-.24,3,1.17,3.22,3.48,3.11,2-.11,3.91.37,3.67-2.93-.33-4.46.2-9-.15-13.43-.4-5.07,2-7.42,6.64-7.57,2.59-.08,2.38-1.35,2.46-3.1.12-2.53-1.63-1.79-3-2-3.15-.52-5.79,2.17-9.13,1.11s-4.23.75-4,3.93S575,362.66,575,366Zm50,0c0,3.48.16,7-.05,10.45-.16,2.68.47,3.77,3.45,3.69,2.65-.07,3.85-.47,3.66-3.48-.27-4.3.21-8.65-.14-12.94-.41-5.06,2-7.43,6.63-7.58,2.58-.08,2.4-1.32,2.48-3.08.12-2.53-1.64-1.74-3-2-3-.7-5.41,2.18-8.64,1.13-3.66-1.19-4.87.73-4.48,4.41A90.19,90.19,0,0,1,624.94,366Z" transform="translate(-40 -197)"/><path class="cls-1" d="M400.43,448c4.47-6.58,9.66-11.87,16.7-15.08,22.09-10.09,46.26,5.31,46.61,29.73.23,15.75-5,29.28-16.3,40.44-12.93,12.75-27.26,23.93-40.51,36.33-6.5,6.09-6.51,6-13.21.05-12.42-11.08-24.93-22.05-37.3-33.18s-19.62-24.89-19.48-42.08c.13-14.87,7.31-26.78,19.79-31.81,13.35-5.38,27.7-2.14,37.92,8.65C396.58,443.08,398.25,445.36,400.43,448Z" transform="translate(-40 -197)"/><path class="cls-2" d="M439,365.88c0-3,.33-6-.08-9-.6-4.37,1.31-6,5.12-4.78,3.31,1.07,5.71-1.31,8.77-1.28,3.4,0,6,3.07,8.4,2.74s4.81-2.78,8-2.63c5.42.26,8.37,2.4,8.67,7.76.35,6.3,0,12.64.13,19,.09,3.29-2.14,2.15-3.72,2.31-1.93.2-3.52.23-3.38-2.66.23-5,0-10,.08-15,.05-2.74.11-5.49-3.24-6.28C465.67,355.59,462,360,462,363c-.06,4.65-.23,9.33.06,14,.18,2.95-1.17,3.23-3.49,3.12-2-.1-3.88.34-3.67-3,.32-5,0-10,.11-15,.06-2.81-.13-6-3.46-5.88a6.1,6.1,0,0,0-5.49,5.95,124.56,124.56,0,0,0,0,14.46c.18,3.08-1.09,3.49-3.72,3.44-2.41-.06-3.63-.39-3.42-3.23C439.19,373.22,439,369.54,439,365.88Z" transform="translate(-40 -197)"/><path class="cls-2" d="M400,380c0,2.35-.08,4.17,0,6,.13,2.49.2,4.26-3.44,4.22-3.35-.05-3.68-1.26-3.64-4.05q.22-15.44,0-30.86c0-2.59.64-3.51,3.28-3.28a25,25,0,0,0,8.25-.77c7.23-1.76,12.91,2,14.25,9.45.83,4.57.84,9.34-1.56,13.81C413.91,380.55,408.44,382.55,400,380Zm12-14.14c.38-1.71-.25-3.54-1-5.35-1-2.36-2.4-4.93-5.11-4.27s-5.55,2.31-5.83,5.74c-.23,2.8.11,5.64-.09,8.44-.23,3.2,2.09,4.14,4.24,5.24,2.38,1.22,4.05-.06,5.51-1.83C411.54,371.56,412.1,369,412,365.83Z" transform="translate(-40 -197)"/><path class="cls-2" d="M268,368.42c0,.67,0,1.33,0,2,0,3,.87,6.52-.43,8.77s-5.06-.07-7.48.52A31.58,31.58,0,0,1,251,381c-4.8-.23-8.59-3.15-9-7a9.85,9.85,0,0,1,7.52-11,28.45,28.45,0,0,1,8.67-1.06c.94.06,2.46.77,2.77-1.07.26-1.58,0-3-1.58-3.82a7.19,7.19,0,0,0-9,1c-.64.58-.39,2-1.83,1.9-1.8-.15-4.46.45-5.22-.5-1.36-1.69.43-3.71,1.76-5,5.28-5.24,11.7-4.05,17.79-2.32,5,1.4,5.18,6,5.07,10.3C268,364.44,268,366.43,268,368.42Zm-7,1.51c0-2.88,0-2.88-3.35-2.92-4.58-.06-8.77,2.38-8.63,5.09.16,3.31,3.11,4.16,5.13,3.7C257.1,375.14,261.38,375,261,369.93Z" transform="translate(-40 -197)"/><path class="cls-2" d="M326,353.15c2.9-2.19,5.66-2.22,8.48-2.14,5.94.15,9.45,3.64,9.5,9.63.05,5.49-.22,11,.1,16.45.19,3.26-1.61,2.87-3.66,3-2.28.09-3.67-.11-3.5-3.1.28-5,0-10,.1-14.94,0-3.14-1.2-5.9-4.32-5.79s-6.39,2.09-6.63,5.92a120.12,120.12,0,0,0,0,14.94c.21,3.23-1.56,2.9-3.63,3-2.25.07-3.59-.07-3.53-3.08q.31-15.93,0-31.89c-.06-3,1.26-3.16,3.52-3.08,2.06.07,4-.28,3.62,3A70.7,70.7,0,0,0,326,353.15Z" transform="translate(-40 -197)"/><path class="cls-2" d="M355.14,368c2.54,9.28,5.66,10.21,11.91,3.93,1.93-1.95,4.59-1.35,6.33-.55,2,.92-.08,2.87-.65,4.15-2.07,4.72-6.23,5.47-10.86,5.51-5.33.05-9.54-1.49-12-6.58a18.44,18.44,0,0,1,0-16.76c3-6.27,9.83-8.43,17.55-5.71,5.39,1.89,8.18,9.32,7.64,14.48-.24,2.27-1.85,1.48-3,1.49C366.46,368.05,360.85,368,355.14,368Zm12.37-5c-.33-4.05-2.43-7-6.22-6.75-3.33.21-6,2.58-5.5,6.75Z" transform="translate(-40 -197)"/><path class="cls-2" d="M489.06,368c2.67,9.25,5.62,10.08,12,3.88,1.92-1.87,4.61-1.34,6.35-.47s-.21,2.82-.7,4.19c-2.49,7-15,6.52-19.21,3.34-6.73-5.14-7.43-17.72-1.89-24.2,3.56-4.16,11.38-4.76,16.78-2.54,4,1.64,7.11,9.1,6.68,13.84-.23,2.52-1.74,1.93-3.08,1.94C500.37,368,494.78,368,489.06,368ZM501.52,363c-.25-3.95-2.39-6.8-6.11-6.75s-5.85,2.75-5.84,6.75Z" transform="translate(-40 -197)"/><path class="cls-2" d="M650,368c.51,3.74,1.65,6.78,5.26,7.67,3.1.77,5-1.31,6.71-3.67s4.52-1.4,6.26-.63c2.07.91,0,2.85-.6,4.13-1.93,4.5-5.86,5.44-10.35,5.54-5.46.12-9.94-1.23-12.51-6.55a18.53,18.53,0,0,1-.08-16.77c3-6.25,9.81-8.4,17.54-5.74,5.38,1.86,8.2,9.3,7.69,14.45-.23,2.3-1.82,1.52-2.94,1.54C661.41,368.05,655.79,368,650,368Zm12.26-5c0-4.25-2.39-6.78-5.8-6.8-3.73,0-5.87,2.8-6.09,6.8H662.3Z" transform="translate(-40 -197)"/><path class="cls-2" d="M680,368c.54,3.67,1.61,6.72,5.23,7.65,3.12.81,5-1.24,6.73-3.61s4.51-1.41,6.24-.69c2.19.9,0,2.85-.53,4.1-2.25,5.22-6.89,5.61-11.81,5.58-5.24,0-9.12-2.1-11.27-6.9a18.64,18.64,0,0,1,.08-16.37c3-6.25,9.77-8.41,17.53-5.79,5.41,1.83,8.22,9.33,7.75,14.41-.21,2.27-1.74,1.58-2.89,1.59C691.44,368,685.81,368,680,368Zm12.4-5.2c-.31-3.87-2.41-6.81-6.2-6.58-3.36.2-5.94,2.61-5.56,6.78h10.94A3.4,3.4,0,0,0,692.41,362.81Z" transform="translate(-40 -197)"/><path class="cls-2" d="M166.06,366.85c0,6.27-2.89,11.45-7.73,13.16-6.48,2.27-12.9.76-16.07-3.23-3.76-4.74-4.45-15.64-.78-20.66s10-6.86,17.12-4C164.59,354.55,166.25,360.06,166.06,366.85Zm-20-.64c0,5.56,2.92,9.86,6.57,9.79s6.42-4.33,6.42-9.94-2.66-9.87-6.32-10S146,360.31,146.07,366.21Z" transform="translate(-40 -197)"/><path class="cls-2" d="M571,366c0,7-2.84,12.26-7.6,14-6.24,2.22-12.9.89-16.12-3.13-3.81-4.76-4.51-15.43-1-20.67,3.31-4.88,10.51-6.63,17.14-4.18C568.07,353.74,571,359.1,571,366Zm-20,.17c0,5.56,2.92,9.86,6.57,9.79s6.42-4.33,6.42-9.94-2.66-9.87-6.32-10S550.92,360.31,551,366.21Z" transform="translate(-40 -197)"/><path class="cls-2" d="M99.64,342.53c6-1.61,9.78,0,12.39,5,1.85,3.53,4.25,6.78,6.54,10.37,2.89-4.48,5.73-8.85,8.54-13.25,2.53-4,6.29-2.34,10.5-2.51-3.43,5-6,9.92-9.66,13.81-5.47,5.82-6.57,12.46-5.9,19.89.21,2.29.55,4.32-3.28,4.36s-4.22-1.8-3.65-4.46c2.52-11.73-5.83-18.94-11.24-27.36C102.68,346.49,101.26,344.75,99.64,342.53Z" transform="translate(-40 -197)"/><path class="cls-2" d="M273,365.83c0-1.83,0-3.67,0-5.5.07-2.63-.67-5.87.6-7.72,1-1.49,4.72.22,6.7-.15,2.83-.54,5.56-1.59,8.57-1.46,5.39.24,9,3.71,9.09,9.08.1,5.66-.2,11.34.11,17,.18,3.24-1.57,2.91-3.64,3-2.28.08-3.7-.1-3.52-3.1.29-4.81,0-9.66.1-14.48.08-3.28-.87-5.86-4.39-6.37-2.77-.4-6.55,3.51-6.61,6.61-.08,4.83-.2,9.67.05,14.49.14,2.74-1.13,3-3.26,2.83-1.84-.16-4.1.74-3.87-2.71C273.23,373.5,273,369.66,273,365.83Z" transform="translate(-40 -197)"/><path class="cls-2" d="M195.05,366a83.39,83.39,0,0,0,.08,9.49c.43,3.77-.95,5.5-4.55,4.39-4-1.23-7.3,1.69-11.27,1.23-5.42-.63-9.11-3.62-9.22-9.06-.12-5.66.16-11.33-.11-17-.14-2.95,1.16-3.25,3.49-3.13,2,.1,3.89-.34,3.67,2.95-.32,4.81,0,9.66-.12,14.48-.08,3.27.72,5.92,4.26,6.52,2.94.51,6.71-3.52,6.76-7,.06-4.66.25-9.34-.07-14-.21-3.19,1.5-3,3.62-3s3.8,0,3.54,3.08C194.82,358.69,195.05,362.38,195.05,366Z" transform="translate(-40 -197)"/><path class="cls-2" d="M215.06,366.31c-.41-5.94,1.51-11.2,6.52-13.92,4.43-2.4,9.58-2.18,14.46.52,2.76,1.52,2.93,4.07,3.94,6.34.32.73,0,1.86-1.08,1.7-2-.29-4.44,1.34-5.79-1-1.27-2.22-2.52-4.4-5.39-3.74-3.12.71-4.66,3.18-5.46,6.18-1.38,5.18.65,10.76,4.29,12.82,2.64,1.5,4,.47,5.59-1.48.74-.91.48-2.9,2.37-2.64s4.71-1.14,5.26.91c.65,2.39-.63,5.15-3,6.7-4.89,3.21-10.48,3.6-15.3.94S214.68,371.88,215.06,366.31Z" transform="translate(-40 -197)"/><path class="cls-2" d="M530,368.26c0-2.49,0-5,0-7.48,0-1.85.73-4.15-2.68-3.84-1.9.17-1.22-1.57-1.29-2.58s-.27-2.55,1.6-2.32c2.1.26,2.24-.83,2.44-2.6.79-7,3.38-9,10.34-8.47,1.75.14,2.75.3,2.65,2.43-.09,1.72-.22,3-2.39,2.62-2.78-.47-3.21,1.59-3.62,3.48-.29,1.35-.23,2.72,1.87,2.53,1.7-.15,3.19-.3,3.17,2.37,0,2.36-.95,2.9-2.94,2.61-2.42-.33-2.16,1.31-2.15,2.83,0,5.65-.22,11.31.08,17,.18,3.31-1.46,3.19-3.85,3.29-2.66.12-3.47-.75-3.28-3.34C530.13,373.93,530,371.09,530,368.26Z" transform="translate(-40 -197)"/><path class="cls-2" d="M609.94,368.34c0-2.66,0-5.32,0-8,0-1.86.35-3.71-2.62-3.41-1.87.19-1.33-1.48-1.36-2.51s-.36-2.6,1.52-2.39c3.14.35,2.32-1.85,2.46-3.53A8.73,8.73,0,0,1,621.77,341c1.73.6,1,1.8,1.15,2.81.15,1.24,0,2.53-1.73,2.17-2.54-.54-3.64,1-4.16,2.94-.42,1.6-.48,3.48,2.25,3.1,1.72-.25,2.72.09,2.74,2.29s-.74,3-2.86,2.7c-2.3-.36-2.24,1.14-2.23,2.74,0,5.82-.15,11.64.08,17.45.11,2.77-1.17,3-3.27,2.81-1.84-.15-4.14.73-3.85-2.71C610.14,374.34,609.94,371.33,609.94,368.34Z" transform="translate(-40 -197)"/><path class="cls-2" d="M387,361.27c0,5.33-.19,10.67.07,16,.17,3.39-1.91,2.65-3.82,2.76s-3.36,0-3.31-2.77c.16-10.83.19-21.66,0-32.48-.06-3.38,1.92-2.65,3.83-2.77,2.06-.12,3.42,0,3.31,2.78C386.84,350.27,387,355.77,387,361.27Z" transform="translate(-40 -197)"/><path class="cls-2" d="M575,366c0-3.32.21-6.66-.06-10s.76-4.95,4-3.93,6-1.63,9.13-1.11c1.36.23,3.11-.51,3,2-.08,1.75.13,3-2.46,3.1-4.61.15-7,2.5-6.64,7.57.35,4.45-.18,9,.15,13.43.24,3.3-1.66,2.82-3.67,2.93-2.31.11-3.72-.15-3.48-3.11C575.18,373.3,575,369.63,575,366Z" transform="translate(-40 -197)"/><path class="cls-2" d="M624.94,366a90.19,90.19,0,0,0-.07-9.45c-.39-3.68.82-5.6,4.48-4.41,3.23,1.05,5.61-1.83,8.64-1.13,1.34.31,3.1-.48,3,2-.08,1.76.1,3-2.48,3.08-4.61.15-7,2.52-6.63,7.58.35,4.29-.13,8.64.14,12.94.19,3-1,3.41-3.66,3.48-3,.08-3.61-1-3.45-3.69C625.1,373,624.94,369.45,624.94,366Z" transform="translate(-40 -197)"/><path d="M412,365.83c.12,3.12-.44,5.73-2.27,8-1.46,1.77-3.13,3.05-5.51,1.83-2.15-1.1-4.47-2-4.24-5.24.2-2.8-.14-5.64.09-8.44.28-3.43,3.15-5.08,5.83-5.74s4.15,1.91,5.11,4.27C411.73,362.29,412.36,364.12,412,365.83Z" transform="translate(-40 -197)"/><path d="M261,369.93c.34,5.1-3.94,5.21-6.85,5.87-2,.46-5-.39-5.13-3.7-.14-2.71,4.05-5.15,8.63-5.09C261.05,367.05,261.05,367.05,261,369.93Z" transform="translate(-40 -197)"/><path d="M367.51,363H355.79c-.48-4.17,2.17-6.54,5.5-6.75C365.08,356,367.18,358.93,367.51,363Z" transform="translate(-40 -197)"/><path d="M501.52,363H489.57c0-4,2.25-6.7,5.84-6.75S501.27,359,501.52,363Z" transform="translate(-40 -197)"/><path d="M662.3,363H650.41c.22-4,2.36-6.83,6.09-6.8C659.91,356.23,662.28,358.76,662.3,363Z" transform="translate(-40 -197)"/><path d="M692.41,362.81a3.4,3.4,0,0,1-.82.19H680.65c-.38-4.17,2.2-6.58,5.56-6.78C690,356,692.1,358.94,692.41,362.81Z" transform="translate(-40 -197)"/><path d="M146.07,366.21c0-5.9,2.88-10.35,6.67-10.18s6.33,4.39,6.32,10-2.75,9.86-6.42,9.94S146.1,371.77,146.07,366.21Z" transform="translate(-40 -197)"/><path d="M551,366.21c0-5.9,2.88-10.35,6.67-10.18s6.33,4.39,6.32,10-2.75,9.86-6.42,9.94S551,371.77,551,366.21Z" transform="translate(-40 -197)"/></svg>