<svg id="Layer_1" data-name="Layer 1" xmlns="http://www.w3.org/2000/svg" viewBox="0 0 135.47 135.63"><defs><style>.cls-1{fill:#7d797b;}.cls-2{fill:#39313a;}.cls-3{fill:#504950;}.cls-4{fill:#413a42;}.cls-5{fill:#666165;}</style></defs><path class="cls-1" d="M337.87,444a37.87,37.87,0,0,1-3.79-16.43c-.21-18.14-.68-36.32.13-54.44.56-12.58,4-24.52,15.45-32.42a44.39,44.39,0,0,1,24.47-7.57c19.3-.53,38.68-1.05,57.92.16,11.31.72,22.57,4.48,29.05,15.61-3,2.48-6.7,4.21-8.74,7.79-5.84-10.8-17-10.76-26.64-11.41-16.73-1.14-33.59-.38-50.4-.28a40,40,0,0,0-14.3,3c-11.89,4.67-14.81,15.23-14.79,26.06,0,21.64-2.1,43.39,1.63,64.95C343.91,439.45,342.17,444.3,337.87,444Z" transform="translate(-333.75 -332.59)"/><path class="cls-2" d="M468.11,370c1.73,1.25.83,3.07.84,4.59.08,17.65.64,35.34-.14,53-.62,14-4.63,26.89-18.23,34.46a48.63,48.63,0,0,1-22.78,5.92c-17.49.4-35,.54-52.47-.05-8.94-.3-18.07-1.6-25.44-7.79,2.58-3.15,7.37-3.75,9.12-7.87a39.16,39.16,0,0,0,15.87,3.75c17.78.22,35.57.39,53.35-.06,7.75-.2,15.54-1.81,21.34-7.94s7.14-13.78,7.33-21.57c.39-16.44.21-32.89.27-49.34C462,376.49,464.16,371.83,468.11,370Z" transform="translate(-333.75 -332.59)"/><path class="cls-3" d="M464,353.9A21.8,21.8,0,0,1,467.14,364c-4.72-.15-6.44,4.75-10.28,6.08-1.32-2.86-1.55-5.95-2-9C457.8,358.46,461.57,357,464,353.9Z" transform="translate(-333.75 -332.59)"/><path class="cls-4" d="M359,452.17c-1.75,4.12-6.54,4.72-9.12,7.87a13.37,13.37,0,0,1-6-5c3.18-2.21,6.66-4.05,9.14-7.16Z" transform="translate(-333.75 -332.59)"/><path class="cls-4" d="M456.86,370c3.84-1.33,5.56-6.23,10.28-6.08,1.73,1.77.4,4,1,6-3.95,1.88-6.11,6.54-10.94,7.06C457.07,374.68,457,372.36,456.86,370Z" transform="translate(-333.75 -332.59)"/><path class="cls-5" d="M464,353.9c-2.46,3.12-6.23,4.56-9.13,7.12l-2.54-4.29c2-3.58,5.72-5.31,8.74-7.79A6.42,6.42,0,0,1,464,353.9Z" transform="translate(-333.75 -332.59)"/><path class="cls-3" d="M353,447.88c-2.48,3.11-6,4.95-9.14,7.16l-3-3.93a19.67,19.67,0,0,1,9.19-7.16Z" transform="translate(-333.75 -332.59)"/><path class="cls-5" d="M350.12,444a19.67,19.67,0,0,0-9.19,7.16,12.34,12.34,0,0,1-3.06-7.08c4.3.27,6-4.58,10-5C348.7,440.63,350,442,350.12,444Z" transform="translate(-333.75 -332.59)"/><path class="cls-1" d="M371.9,418c-6.85-11.18-6.91-22.89-.72-34,6.27-11.25,16.23-17.9,29.65-18,10-.1,18.67,2.93,25.21,10.87q-4.57,3.57-9.16,7.13c-8.83-8.89-23-6.75-29.35-1.17-9,7.93-10.51,17.27-6.5,28C378.92,414.48,374.93,415.64,371.9,418Z" transform="translate(-333.75 -332.59)"/><path class="cls-2" d="M435.83,396c1.51,14.77-4.28,26.26-16.58,34-9,5.69-19,7-29.24,2.79.16-2.08,1.86-2.83,3.21-4,1.82-1.63,4.95-2.29,4.79-5.63,15.77-.81,23.51-6.77,26.16-20.16C429,402.16,431.37,397.38,435.83,396Z" transform="translate(-333.75 -332.59)"/><path class="cls-1" d="M433.89,371c-3.71-1.88-5.06-5.5-3.6-9.71,1.37-3.95,4.8-5.58,10.14-4.24,3.32.84,5.25,3.16,4.41,6.94C440.32,365,438.12,369.61,433.89,371Z" transform="translate(-333.75 -332.59)"/><path class="cls-5" d="M371.9,418c3-2.39,7-3.55,9.13-7.13q3,3.53,6.1,7c-2.9,2.61-6.72,4-9.19,7.18A18.18,18.18,0,0,1,371.9,418Z" transform="translate(-333.75 -332.59)"/><path class="cls-3" d="M430.09,382c3,1.84,2.84,5.26,4,8-4.33-.15-5.79,5.49-10.25,5.08q-1.38-3.34-2.74-6.68Z" transform="translate(-333.75 -332.59)"/><path class="cls-4" d="M423.88,395c4.46.41,5.92-5.23,10.25-5.08a16.45,16.45,0,0,1,1.7,6.06c-4.46,1.37-6.88,6.15-11.66,7C424.07,400.35,424,397.69,423.88,395Z" transform="translate(-333.75 -332.59)"/><path class="cls-3" d="M377.94,425.12c2.47-3.15,6.29-4.57,9.19-7.18l6,4c-3.91,1.67-6.73,4.89-10.25,7.11C380.28,428.93,379.38,426.68,377.94,425.12Z" transform="translate(-333.75 -332.59)"/><path class="cls-4" d="M382.88,429.05c3.52-2.22,6.34-5.44,10.25-7.11,1.83-.4,3.18,1.09,4.88,1.23.16,3.34-3,4-4.79,5.63-1.35,1.2-3.05,1.95-3.21,4C387.54,431.75,384.45,431.81,382.88,429.05Z" transform="translate(-333.75 -332.59)"/><path class="cls-5" d="M430.09,382l-8.95,6.4L416.88,384q4.59-3.56,9.16-7.13C427.67,378.36,429.9,379.34,430.09,382Z" transform="translate(-333.75 -332.59)"/><path class="cls-5" d="M433.89,371c4.23-1.43,6.43-6,10.95-7C445.14,371.21,441.34,373.64,433.89,371Z" transform="translate(-333.75 -332.59)"/></svg>